<svg width="26" height="24" viewBox="0 0 26 24" fill="none" xmlns="http://www.w3.org/2000/svg">
<g id="Iconly/Curved/Bold/3 User">
<g id="Vector">
<path fill-rule="evenodd" clip-rule="evenodd" d="M19.4749 12.3084C18.3349 12.3084 17.2649 12.5384 16.3649 12.9284C19.5149 13.8384 21.7449 16.0184 21.8049 18.5684C23.4449 18.3584 25.2149 17.7384 25.2149 16.0484C25.2149 14.0184 22.5849 12.3084 19.4749 12.3084Z" fill="#27241D"/>
<path fill-rule="evenodd" clip-rule="evenodd" d="M19.4449 10.8685H19.4649C21.5949 10.8685 23.3349 9.12846 23.3349 7.00846C23.3349 4.87846 21.5949 3.13846 19.4649 3.13846C19.0449 3.13846 18.6449 3.20846 18.2649 3.32846C18.9549 4.34846 19.3549 5.57846 19.3549 6.90846C19.3649 8.25846 18.9449 9.55846 18.1549 10.6385C18.5649 10.7885 18.9949 10.8685 19.4449 10.8685Z" fill="#27241D"/>
<path fill-rule="evenodd" clip-rule="evenodd" d="M9.62491 12.9184C8.72491 12.5384 7.65491 12.3084 6.52491 12.3084C3.41491 12.3084 0.784912 14.0184 0.784912 16.0484C0.784912 17.7384 2.54491 18.3484 4.18491 18.5684C4.23491 16.0184 6.46491 13.8384 9.62491 12.9184Z" fill="#27241D"/>
<path fill-rule="evenodd" clip-rule="evenodd" d="M6.52492 10.8685H6.55492C7.00492 10.8685 7.43492 10.7885 7.84492 10.6385C7.08492 9.59846 6.63492 8.30846 6.63492 6.90846C6.63492 5.57846 7.03492 4.34846 7.72492 3.32846C7.34492 3.20846 6.94492 3.13846 6.52492 3.13846C4.39492 3.13846 2.66492 4.87846 2.66492 7.00846C2.66492 9.12846 4.39492 10.8685 6.52492 10.8685Z" fill="#27241D"/>
<path fill-rule="evenodd" clip-rule="evenodd" d="M12.9945 13.9455C9.03352 13.9455 5.68652 16.1015 5.68652 18.6535C5.68652 21.9535 11.1865 21.9535 12.9945 21.9535C16.1325 21.9535 20.3045 21.6135 20.3045 18.6745C20.3045 16.1105 16.9565 13.9455 12.9945 13.9455Z" fill="#27241D"/>
<path fill-rule="evenodd" clip-rule="evenodd" d="M12.9955 11.7745H13.0285C14.3235 11.7705 15.5395 11.2615 16.4515 10.3425C17.3645 9.42354 17.8645 8.20454 17.8595 6.91154C17.8595 4.22854 15.6785 2.04654 12.9955 2.04654C10.3135 2.04654 8.13251 4.22854 8.13251 6.91154C8.13251 9.59254 10.3135 11.7745 12.9955 11.7745Z" fill="#27241D"/>
</g>
</g>
</svg>
