<svg width="26" height="27" viewBox="0 0 26 27" fill="none" xmlns="http://www.w3.org/2000/svg">
<circle cx="13" cy="13.5" r="13" fill="#FEFEFE"/>
<path d="M17.5 8.5625V7.5H9V8.5625H11.9219C12.5082 8.56422 13.0734 8.78185 13.5095 9.17382C13.9455 9.5658 14.222 10.1047 14.2859 10.6875H9V11.75H14.2859C14.222 12.3328 13.9455 12.8717 13.5095 13.2637C13.0734 13.6557 12.5082 13.8733 11.9219 13.875H9V15.1208L14.109 19.7188L14.8198 18.9293L10.3844 14.9375H11.9219C12.791 14.9362 13.6278 14.6074 14.2654 14.0167C14.9029 13.4259 15.2944 12.6166 15.3617 11.75H17.5V10.6875H15.3617C15.3008 9.8898 14.9635 9.13832 14.4081 8.5625H17.5Z" fill="#02AF9B"/>
</svg>
