<svg width="18" height="18" viewBox="0 0 18 18" fill="none" xmlns="http://www.w3.org/2000/svg">
<path fill-rule="evenodd" clip-rule="evenodd" d="M7.48447 13.2441H1.01147C0.459475 13.2441 0.0114746 13.6911 0.0114746 14.2441C0.0114746 14.7971 0.459475 15.2441 1.01147 15.2441H7.48447C8.03647 15.2441 8.48447 14.7971 8.48447 14.2441C8.48447 13.6911 8.03647 13.2441 7.48447 13.2441Z" fill="#FAF9F7"/>
<path fill-rule="evenodd" clip-rule="evenodd" d="M14.2672 11.0234C11.9492 11.0234 11.0452 11.9264 11.0452 14.2454C11.0452 16.5644 11.9492 17.4674 14.2672 17.4674C16.5862 17.4674 17.4892 16.5644 17.4892 14.2454C17.4892 11.9264 16.5862 11.0234 14.2672 11.0234Z" fill="#FAF9F7"/>
<path fill-rule="evenodd" clip-rule="evenodd" d="M16.9883 2.75494H10.5173C9.96533 2.75494 9.51733 3.20194 9.51733 3.75494C9.51733 4.30794 9.96533 4.75494 10.5173 4.75494H16.9883C17.5403 4.75494 17.9883 4.30794 17.9883 3.75494C17.9883 3.20194 17.5403 2.75494 16.9883 2.75494Z" fill="#FAF9F7"/>
<path fill-rule="evenodd" clip-rule="evenodd" d="M3.73354 6.97653C6.05254 6.97653 6.95554 6.07353 6.95554 3.75353C6.95554 1.43553 6.05254 0.532532 3.73354 0.532532C1.41454 0.532532 0.511536 1.43553 0.511536 3.75353C0.511536 6.07353 1.41454 6.97653 3.73354 6.97653Z" fill="#FAF9F7"/>
</svg>
