<svg width="26" height="25" viewBox="0 0 26 25" fill="none" xmlns="http://www.w3.org/2000/svg">
<g clip-path="url(#clip0_358_3062)">
<path fill-rule="evenodd" clip-rule="evenodd" d="M17.2287 18.918C17.2287 19.332 16.8927 19.668 16.4787 19.668C16.0647 19.668 15.7287 19.332 15.7287 18.918V15.761C15.7287 15.347 16.0647 15.011 16.4787 15.011C16.8927 15.011 17.2287 15.347 17.2287 15.761V18.918ZM12.7497 18.918C12.7497 19.332 12.4137 19.668 11.9997 19.668C11.5857 19.668 11.2497 19.332 11.2497 18.918V9.02C11.2497 8.605 11.5857 8.27 11.9997 8.27C12.4137 8.27 12.7497 8.605 12.7497 9.02V18.918ZM8.1957 18.918C8.1957 19.332 7.8597 19.668 7.4457 19.668C7.0317 19.668 6.6957 19.332 6.6957 18.918V12.224C6.6957 11.81 7.0317 11.474 7.4457 11.474C7.8597 11.474 8.1957 11.81 8.1957 12.224V18.918ZM11.9997 3.763C4.4407 3.763 1.7627 6.441 1.7627 14C1.7627 21.559 4.4407 24.237 11.9997 24.237C19.5577 24.237 22.2367 21.559 22.2367 14C22.2367 6.441 19.5577 3.763 11.9997 3.763Z" fill="black"/>
</g>
<defs>
<clipPath id="clip0_358_3062">
<rect width="24.4255" height="24.4255" fill="white" transform="translate(0.793945 0.170227)"/>
</clipPath>
</defs>
</svg>
