<svg width="200" height="187" viewBox="0 0 200 187" fill="none" xmlns="http://www.w3.org/2000/svg">
<path fill-rule="evenodd" clip-rule="evenodd" d="M86.3993 129.67C83.4093 129.67 80.9555 127.249 80.9555 124.253C80.9555 121.258 83.3551 118.837 86.3505 118.837H86.3993C89.3893 118.837 91.8159 121.258 91.8159 124.253C91.8159 127.249 89.3893 129.67 86.3993 129.67ZM64.6839 129.67C61.6884 129.67 59.2401 127.249 59.2401 124.253C59.2401 121.258 61.6451 118.837 64.6351 118.837H64.6839C67.6739 118.837 70.1005 121.258 70.1005 124.253C70.1005 127.249 67.6739 129.67 64.6839 129.67ZM42.9684 129.67C39.9784 129.67 37.5301 127.249 37.5301 124.253C37.5301 121.258 39.9243 118.837 42.9197 118.837H42.9684C45.9584 118.837 48.3851 121.258 48.3851 124.253C48.3851 127.249 45.9584 129.67 42.9684 129.67ZM105.228 81.7867C94.4972 71.0562 80.2134 65.1412 65.0143 65.1412C49.8151 65.1412 35.5314 71.0562 24.8009 81.7867C7.99843 98.5946 3.41593 124.389 13.3013 145.698C13.4801 146.575 12.998 150.145 12.6513 152.756C11.3405 162.538 10.6688 169.721 13.9893 173.047C17.3043 176.367 24.4813 175.695 34.2638 174.379C36.8747 174.032 40.4876 173.567 41.0509 173.626C48.6668 177.152 56.808 178.859 64.8897 178.859C79.7205 178.859 94.3564 173.106 105.228 162.23C127.398 140.048 127.403 103.962 105.228 81.7867Z" fill="#610404"/>
<path fill-rule="evenodd" clip-rule="evenodd" d="M113.601 72.67C116.591 72.67 119.044 70.2487 119.044 67.2533C119.044 64.2579 116.645 61.8367 113.649 61.8367H113.601C110.611 61.8367 108.184 64.2579 108.184 67.2533C108.184 70.2487 110.611 72.67 113.601 72.67ZM135.316 72.67C138.312 72.67 140.76 70.2487 140.76 67.2533C140.76 64.2579 138.355 61.8367 135.365 61.8367H135.316C132.326 61.8367 129.899 64.2579 129.899 67.2533C129.899 70.2487 132.326 72.67 135.316 72.67ZM157.032 72.67C160.022 72.67 162.47 70.2487 162.47 67.2533C162.47 64.2579 160.076 61.8367 157.08 61.8367H157.032C154.042 61.8367 151.615 64.2579 151.615 67.2533C151.615 70.2487 154.042 72.67 157.032 72.67ZM94.7724 24.7867C105.503 14.0562 119.787 8.14124 134.986 8.14124C150.185 8.14124 164.469 14.0562 175.199 24.7867C192.002 41.5946 196.584 67.3887 186.699 88.6979C186.52 89.5754 187.002 93.145 187.349 95.7558C188.659 105.538 189.331 112.721 186.011 116.047C182.696 119.367 175.519 118.695 165.736 117.379C163.125 117.032 159.512 116.567 158.949 116.626C151.333 120.152 143.192 121.859 135.11 121.859C120.279 121.859 105.644 116.106 94.7724 105.23C72.602 83.0483 72.5966 46.9625 94.7724 24.7867Z" fill="#F0B429"/>
</svg>
