<svg width="24" height="24" viewBox="0 0 24 24" fill="none" xmlns="http://www.w3.org/2000/svg">
<path fill-rule="evenodd" clip-rule="evenodd" d="M19.0988 9.59753C19.0988 9.32153 18.8748 9.09753 18.5988 9.09753H5.4028C5.1258 9.09753 4.9028 9.32153 4.9028 9.59753C4.9028 10.5945 4.8848 11.5235 4.8678 12.3845C4.7938 16.1335 4.7448 18.6105 6.2598 20.1555C7.3358 21.2525 9.1028 21.7425 11.9898 21.7425C14.8798 21.7425 16.6498 21.2515 17.7288 20.1525C19.2508 18.6005 19.2028 16.1115 19.1318 12.3415C19.1158 11.4925 19.0988 10.5775 19.0988 9.59753Z" fill="black"/>
<path fill-rule="evenodd" clip-rule="evenodd" d="M20.0748 5.77432H15.9338C15.8928 5.12032 15.7118 4.19832 15.0608 3.45032C14.3728 2.65932 13.3428 2.25732 11.9988 2.25732C10.6558 2.25732 9.6258 2.65932 8.9378 3.45032C8.2868 4.19832 8.1048 5.12032 8.0638 5.77432H3.9248C3.5108 5.77432 3.1748 6.11032 3.1748 6.52432C3.1748 6.93832 3.5108 7.27432 3.9248 7.27432H20.0748C20.4888 7.27432 20.8248 6.93832 20.8248 6.52432C20.8248 6.11032 20.4888 5.77432 20.0748 5.77432Z" fill="black"/>
</svg>
