<svg xmlns="http://www.w3.org/2000/svg" width="720" height="1024" fill="none" xmlns:v="https://vecta.io/nano"><g clip-path="url(#A)"><path fill="#ba2525" d="M0 0h720v1024H0z"/><g fill="#f0b429"><path d="M-10.731 17.564l32.173 30.809L10.848 91.64-31.92 104.099-64.093 73.29l10.594-43.267 42.768-12.458zm53.935-55.97L75.377-7.597 64.782 35.67 22.015 48.129-10.158 17.32.436-25.947l42.768-12.458zM11.209 92.282l32.173 30.809-10.594 43.267-42.768 12.458-32.173-30.808 10.595-43.267L11.21 92.282zm53.524-56.109l32.173 30.809-10.594 43.267-42.768 12.459-32.173-30.809 10.594-43.267 42.768-12.458z"/></g><g opacity=".2" fill="#610404"><path d="M566.819 707.759l94.619 90.606-31.157 127.245-125.776 36.639-94.619-90.605 31.157-127.245 125.776-36.64zm158.619-164.602l94.618 90.606-31.157 127.245-125.776 36.64-94.619-90.606 31.157-127.245 125.777-36.64zM408.56 873.112l94.619 90.606-31.157 127.242-125.777 36.64-94.619-90.6 31.158-127.249 125.776-36.639zm222.786 54.389l94.619 90.609-31.158 127.24-125.776 36.64-94.619-90.6 31.158-127.249 125.776-36.64zm157.409-165.014l94.619 90.605-31.158 127.246-125.776 36.642-94.619-90.609 31.158-127.245 125.776-36.639z"/></g><g fill="#f0b429"><path d="M694.338 499.342l22.399 21.449-7.376 30.122-29.774 8.674-22.399-21.449 7.376-30.123 29.774-8.673zm37.55-38.966l22.399 21.449-7.376 30.122-29.775 8.674-22.398-21.449 7.375-30.123 29.775-8.673zm-75.014 78.109l22.399 21.449-7.376 30.123-29.775 8.674-22.399-21.449 7.376-30.123 29.775-8.674zm52.74 12.876l22.399 21.449-7.376 30.122-29.775 8.674-22.399-21.449 7.376-30.122 29.775-8.674zm37.263-39.064l22.399 21.449-7.375 30.123-29.775 8.673-22.399-21.449 7.376-30.122 29.774-8.674z"/></g></g><defs><clipPath id="A"><path fill="#fff" d="M0 0h720v1024H0z"/></clipPath></defs></svg>