<svg width="260" height="65" viewBox="0 0 375 91" fill="none" xmlns="http://www.w3.org/2000/svg">
<path d="M336.235 61.1069L340.188 63.3888L340.188 67.9526L336.235 70.2345L332.283 67.9526L332.283 63.3888L336.235 61.1069Z" stroke="#F0B429" stroke-width="1.67062"/>
<path d="M331.249 69.7787L335.201 72.0607L335.201 76.6245L331.249 78.9064L327.297 76.6245L327.297 72.0607L331.249 69.7787Z" stroke="#27241D" stroke-width="1.67062"/>
<path d="M340.804 69.0553C341.063 68.9061 341.381 68.9061 341.639 69.0553L345.592 71.3373C345.85 71.4865 346.009 71.7622 346.009 72.0607V76.6245C346.009 76.9229 345.85 77.1987 345.592 77.3479L341.639 79.6298C341.381 79.779 341.063 79.779 340.804 79.6298L336.852 77.3479C336.593 77.1987 336.434 76.9229 336.434 76.6245V72.0607C336.434 71.7622 336.593 71.4865 336.852 71.3373L340.804 69.0553Z" fill="#423D33"/>
<path d="M345.791 77.7275C346.049 77.5782 346.368 77.5782 346.626 77.7275L350.579 80.0094C350.837 80.1586 350.996 80.4343 350.996 80.7328V85.2966C350.996 85.595 350.837 85.8708 350.579 86.02L346.626 88.3019C346.368 88.4511 346.049 88.4511 345.791 88.3019L341.838 86.02C341.58 85.8708 341.421 85.595 341.421 85.2966V80.7328C341.421 80.4343 341.58 80.1586 341.838 80.0094L345.791 77.7275Z" fill="#423D33"/>
<path d="M355.764 77.7275C356.022 77.5782 356.34 77.5782 356.599 77.7275L360.551 80.0094C360.81 80.1586 360.969 80.4343 360.969 80.7328V85.2966C360.969 85.595 360.81 85.8708 360.551 86.02L356.599 88.3019C356.34 88.4511 356.022 88.4511 355.764 88.3019L351.811 86.02C351.553 85.8708 351.393 85.595 351.393 85.2966V80.7328C351.393 80.4343 351.553 80.1586 351.811 80.0094L355.764 77.7275Z" fill="#423D33"/>
<path d="M320.859 69.0553C321.117 68.9061 321.436 68.9061 321.694 69.0553L325.646 71.3373C325.905 71.4865 326.064 71.7622 326.064 72.0607V76.6245C326.064 76.9229 325.905 77.1987 325.646 77.3479L321.694 79.6298C321.436 79.779 321.117 79.779 320.859 79.6298L316.906 77.3479C316.648 77.1987 316.489 76.9229 316.489 76.6245V72.0607C316.489 71.7622 316.648 71.4865 316.906 71.3373L320.859 69.0553Z" fill="#423D33"/>
<path d="M335.818 77.7275C336.076 77.5782 336.395 77.5782 336.653 77.7275L340.605 80.0094C340.864 80.1586 341.023 80.4343 341.023 80.7328V85.2966C341.023 85.595 340.864 85.8708 340.605 86.02L336.653 88.3019C336.395 88.4511 336.076 88.4511 335.818 88.3019L331.865 86.02C331.607 85.8708 331.448 85.595 331.448 85.2966V80.7328C331.448 80.4343 331.607 80.1586 331.865 80.0094L335.818 77.7275Z" fill="#F0B429"/>
<path d="M151.779 23.78V66H141.495V40.68L132.053 66H123.753L114.25 40.6199V66H103.966V23.78H116.115L127.963 53.0092L139.691 23.78H151.779ZM190.81 48.679C190.81 49.6412 190.75 50.6436 190.63 51.6861H167.354C167.515 53.771 168.176 55.3748 169.339 56.4975C170.542 57.5801 172.005 58.1213 173.73 58.1213C176.296 58.1213 178.08 57.0388 179.082 54.8736H190.028C189.467 57.0789 188.444 59.0636 186.961 60.8277C185.517 62.5919 183.693 63.9752 181.488 64.9776C179.283 65.98 176.817 66.4811 174.09 66.4811C170.803 66.4811 167.876 65.7795 165.31 64.3762C162.743 62.9728 160.739 60.9681 159.295 58.3619C157.852 55.7557 157.13 52.7085 157.13 49.2203C157.13 45.732 157.832 42.6848 159.235 40.0786C160.679 37.4724 162.683 35.4677 165.249 34.0644C167.816 32.661 170.762 31.9594 174.09 31.9594C177.338 31.9594 180.225 32.641 182.751 34.0042C185.277 35.3674 187.242 37.312 188.645 39.838C190.088 42.364 190.81 45.311 190.81 48.679ZM180.285 45.9726C180.285 44.2084 179.684 42.8051 178.481 41.7626C177.278 40.7201 175.774 40.1989 173.97 40.1989C172.246 40.1989 170.783 40.7001 169.58 41.7024C168.417 42.7048 167.695 44.1282 167.415 45.9726H180.285ZM209.888 66.4811C206.961 66.4811 204.355 65.98 202.069 64.9776C199.784 63.9752 197.98 62.612 196.656 60.8879C195.333 59.1237 194.592 57.1591 194.431 54.9939H204.595C204.716 56.1567 205.257 57.0989 206.219 57.8206C207.181 58.5423 208.364 58.9032 209.768 58.9032C211.051 58.9032 212.033 58.6626 212.715 58.1815C213.436 57.6602 213.797 56.9987 213.797 56.1968C213.797 55.2345 213.296 54.5328 212.294 54.0918C211.291 53.6107 209.667 53.0894 207.422 52.5281C205.016 51.9668 203.012 51.3854 201.408 50.784C199.804 50.1424 198.421 49.1601 197.258 47.837C196.095 46.4737 195.514 44.6494 195.514 42.364C195.514 40.4395 196.035 38.6953 197.077 37.1316C198.16 35.5278 199.724 34.2648 201.769 33.3426C203.854 32.4205 206.319 31.9594 209.166 31.9594C213.376 31.9594 216.684 33.0018 219.09 35.0868C221.535 37.1717 222.939 39.9383 223.3 43.3864H213.797C213.637 42.2237 213.115 41.3015 212.233 40.6199C211.391 39.9383 210.269 39.5975 208.865 39.5975C207.663 39.5975 206.74 39.838 206.099 40.3192C205.457 40.7602 205.137 41.3817 205.137 42.1836C205.137 43.1459 205.638 43.8676 206.64 44.3487C207.683 44.8299 209.286 45.311 211.452 45.7921C213.937 46.4337 215.962 47.0752 217.526 47.7167C219.09 48.3181 220.453 49.3205 221.616 50.7238C222.818 52.087 223.44 53.9314 223.48 56.2569C223.48 58.2216 222.919 59.9858 221.796 61.5495C220.713 63.0731 219.13 64.2759 217.045 65.158C215 66.0401 212.614 66.4811 209.888 66.4811ZM243.424 66.4811C240.497 66.4811 237.891 65.98 235.606 64.9776C233.32 63.9752 231.516 62.612 230.193 60.8879C228.87 59.1237 228.128 57.1591 227.968 54.9939H238.132C238.252 56.1567 238.793 57.0989 239.756 57.8206C240.718 58.5423 241.901 58.9032 243.304 58.9032C244.587 58.9032 245.569 58.6626 246.251 58.1815C246.973 57.6602 247.334 56.9987 247.334 56.1968C247.334 55.2345 246.832 54.5328 245.83 54.0918C244.828 53.6107 243.204 53.0894 240.958 52.5281C238.553 51.9668 236.548 51.3854 234.944 50.784C233.34 50.1424 231.957 49.1601 230.794 47.837C229.632 46.4737 229.05 44.6494 229.05 42.364C229.05 40.4395 229.571 38.6953 230.614 37.1316C231.697 35.5278 233.26 34.2648 235.305 33.3426C237.39 32.4205 239.856 31.9594 242.703 31.9594C246.913 31.9594 250.22 33.0018 252.626 35.0868C255.072 37.1717 256.475 39.9383 256.836 43.3864H247.334C247.173 42.2237 246.652 41.3015 245.77 40.6199C244.928 39.9383 243.805 39.5975 242.402 39.5975C241.199 39.5975 240.277 39.838 239.635 40.3192C238.994 40.7602 238.673 41.3817 238.673 42.1836C238.673 43.1459 239.174 43.8676 240.177 44.3487C241.219 44.8299 242.823 45.311 244.988 45.7921C247.474 46.4337 249.499 47.0752 251.062 47.7167C252.626 48.3181 253.989 49.3205 255.152 50.7238C256.355 52.087 256.976 53.9314 257.016 56.2569C257.016 58.2216 256.455 59.9858 255.333 61.5495C254.25 63.0731 252.666 64.2759 250.581 65.158C248.536 66.0401 246.151 66.4811 243.424 66.4811ZM288.869 44.3487C291.315 44.8699 293.279 46.0928 294.763 48.0174C296.246 49.9019 296.988 52.067 296.988 54.5128C296.988 58.0411 295.745 60.8478 293.259 62.9327C290.814 64.9776 287.385 66 282.975 66H263.308V23.78H282.313C286.604 23.78 289.952 24.7623 292.357 26.727C294.803 28.6916 296.026 31.3579 296.026 34.7259C296.026 37.2118 295.364 39.2767 294.041 40.9206C292.758 42.5645 291.034 43.7072 288.869 44.3487ZM273.593 40.8604H280.329C282.013 40.8604 283.296 40.4996 284.178 39.7779C285.1 39.0161 285.561 37.9135 285.561 36.47C285.561 35.0266 285.1 33.924 284.178 33.1622C283.296 32.4004 282.013 32.0195 280.329 32.0195H273.593V40.8604ZM281.171 57.7003C282.895 57.7003 284.218 57.3194 285.14 56.5576C286.102 55.7557 286.584 54.613 286.584 53.1295C286.584 51.646 286.082 50.4832 285.08 49.6412C284.118 48.7993 282.775 48.3783 281.05 48.3783H273.593V57.7003H281.171ZM334.588 48.679C334.588 49.6412 334.528 50.6436 334.408 51.6861H311.132C311.293 53.771 311.954 55.3748 313.117 56.4975C314.32 57.5801 315.784 58.1213 317.508 58.1213C320.074 58.1213 321.858 57.0388 322.86 54.8736H333.806C333.245 57.0789 332.222 59.0636 330.739 60.8277C329.296 62.5919 327.471 63.9752 325.266 64.9776C323.061 65.98 320.595 66.4811 317.868 66.4811C314.581 66.4811 311.654 65.7795 309.088 64.3762C306.522 62.9728 304.517 60.9681 303.073 58.3619C301.63 55.7557 300.908 52.7085 300.908 49.2203C300.908 45.732 301.61 42.6848 303.013 40.0786C304.457 37.4724 306.461 35.4677 309.028 34.0644C311.594 32.661 314.541 31.9594 317.868 31.9594C321.116 31.9594 324.003 32.641 326.529 34.0042C329.055 35.3674 331.02 37.312 332.423 39.838C333.866 42.364 334.588 45.311 334.588 48.679ZM324.063 45.9726C324.063 44.2084 323.462 42.8051 322.259 41.7626C321.056 40.7201 319.552 40.1989 317.748 40.1989C316.024 40.1989 314.561 40.7001 313.358 41.7024C312.195 42.7048 311.473 44.1282 311.193 45.9726H324.063ZM371.648 48.679C371.648 49.6412 371.588 50.6436 371.468 51.6861H348.193C348.353 53.771 349.015 55.3748 350.178 56.4975C351.38 57.5801 352.844 58.1213 354.568 58.1213C357.134 58.1213 358.918 57.0388 359.921 54.8736H370.867C370.305 57.0789 369.283 59.0636 367.799 60.8277C366.356 62.5919 364.532 63.9752 362.326 64.9776C360.121 65.98 357.655 66.4811 354.929 66.4811C351.641 66.4811 348.714 65.7795 346.148 64.3762C343.582 62.9728 341.577 60.9681 340.134 58.3619C338.69 55.7557 337.969 52.7085 337.969 49.2203C337.969 45.732 338.67 42.6848 340.074 40.0786C341.517 37.4724 343.522 35.4677 346.088 34.0644C348.654 32.661 351.601 31.9594 354.929 31.9594C358.177 31.9594 361.063 32.641 363.589 34.0042C366.115 35.3674 368.08 37.312 369.483 39.838C370.927 42.364 371.648 45.311 371.648 48.679ZM361.124 45.9726C361.124 44.2084 360.522 42.8051 359.319 41.7626C358.116 40.7201 356.613 40.1989 354.809 40.1989C353.085 40.1989 351.621 40.7001 350.418 41.7024C349.255 42.7048 348.534 44.1282 348.253 45.9726H361.124Z" fill="#F0B429"/>
<path fill-rule="evenodd" clip-rule="evenodd" d="M45.1068 0C20.195 0 0 20.195 0 45.1068C0 70.0187 20.195 90.2137 45.1068 90.2137C55.1182 90.2137 64.3678 86.9522 71.8511 81.4337L80.4182 85.4145C81.0877 85.7256 81.8021 85.0788 81.5588 84.3817L78.4529 75.4827C85.7589 67.4669 90.2137 56.8071 90.2137 45.1068C90.2137 20.195 70.0187 0 45.1068 0Z" fill="#F0B429"/>
<g clip-path="url(#clip0_739_1611)">
<path d="M46.5479 39.2053C46.477 39.1357 46.2641 38.5834 46.1932 38.4443C38.9826 24.0279 22.8676 24.5107 20.3266 30.9947C18.3444 35.9611 26.8985 47.7594 46.5479 39.2053Z" fill="#27241D"/>
<path d="M49.7987 37.8965C60.8894 33.0649 59.3373 24.7196 56.4371 23.615C52.619 22.1668 45.5504 27.7594 49.5814 37.479C49.6523 37.5486 49.7987 37.8269 49.7987 37.8965Z" fill="#27241D"/>
<path d="M39.1956 50.8906C37.1469 53.9957 35.5904 57.1703 34.5261 59.4491C34.4596 59.5882 34.4596 59.6578 34.3886 59.7926C34.0339 60.6885 33.6791 61.38 33.4707 62.0018C33.1869 62.689 33.5416 63.5196 34.3177 63.7936C34.8808 64.0023 35.6569 64.2763 36.5793 64.6242C36.7167 64.6938 36.7921 64.6938 36.934 64.759C39.4085 65.5896 42.8009 66.4855 46.4771 67.1073C44.2865 65.0417 42.5171 62.5498 41.2444 59.7926C39.9717 56.9659 39.2666 53.9304 39.1956 50.8906Z" fill="#27241D"/>
<path d="M70.2196 47.0985C68.5256 43.4455 65.4835 40.7536 61.8827 39.5098C61.5279 39.375 61.1776 39.3054 60.7519 39.3054C58.9115 39.3054 57.0756 40.8232 56.9337 42.6888C56.6499 45.8634 57.2885 49.0337 58.6987 52.1388C60.1088 55.1742 62.0911 57.727 64.57 59.6579C65.2085 60.1406 66.0555 60.3493 66.8316 60.3493C68.3171 60.3493 69.7318 59.5926 70.2949 58.2836C71.8426 54.8916 71.918 50.8254 70.2196 47.0985Z" fill="#27241D"/>
<path d="M54.5298 54.0696C52.7648 50.2035 52.0553 46.2722 52.4101 42.4061C52.4766 41.3058 52.8358 40.2708 53.328 39.3706C53.2615 39.3706 53.1152 39.4358 53.0442 39.4358C52.9023 39.5054 52.6895 39.5054 52.5476 39.575C51.4877 39.849 50.4278 40.336 49.5099 40.8188C49.0177 41.0971 48.592 41.3754 48.0997 41.6494C45.7006 43.2367 43.7184 45.9938 43.4346 48.8945C43.1508 51.9996 43.7184 55.1742 45.0576 58.2097C46.4013 61.1756 48.3791 63.5935 50.7826 65.4548C52.2682 66.629 54.8801 67.3204 57.0752 67.3204C59.4743 67.3204 62.0197 66.4202 64.0684 65.1808C64.0684 65.1808 64.1394 65.1808 64.1394 65.1156C64.2769 65.046 64.4232 64.9025 64.5651 64.8373C64.6316 64.7677 64.7026 64.7024 64.7735 64.7024C63.6427 64.4241 62.6538 63.9457 61.8068 63.3195C58.7027 60.9668 56.2282 57.8618 54.5298 54.0696Z" fill="#27241D"/>
</g>
<defs>
<clipPath id="clip0_739_1611">
<rect width="51.4272" height="43.9274" fill="white" transform="translate(20.0474 23.3888)"/>
</clipPath>
</defs>
</svg>
