<svg width="54" height="54" viewBox="0 0 54 54" fill="none" xmlns="http://www.w3.org/2000/svg">
<path fill-rule="evenodd" clip-rule="evenodd" d="M27 0C12.0883 0 0 12.0883 0 27C0 41.9117 12.0883 54 27 54C32.9926 54 38.5292 52.0477 43.0085 48.7445L48.1365 51.1273C48.5373 51.3135 48.9649 50.9263 48.8193 50.5091L46.9602 45.1824C51.3334 40.3843 54 34.0036 54 27C54 12.0883 41.9117 0 27 0Z" fill="#BA2525"/>
<g clip-path="url(#clip0_531_1867)">
<path d="M27.8627 23.4674C27.8203 23.4258 27.6928 23.0952 27.6504 23.0119C23.3343 14.3826 13.6882 14.6715 12.1672 18.5527C10.9807 21.5255 16.101 28.5877 27.8627 23.4674Z" fill="#F0B429"/>
<path d="M29.8084 22.684C36.4471 19.792 35.5181 14.7966 33.7821 14.1354C31.4966 13.2686 27.2655 16.6162 29.6784 22.4341C29.7208 22.4758 29.8084 22.6424 29.8084 22.684Z" fill="#F0B429"/>
<path d="M23.4617 30.4619C22.2354 32.3205 21.3037 34.2208 20.6666 35.5848C20.6268 35.6681 20.6268 35.7098 20.5843 35.7905C20.372 36.3267 20.1596 36.7406 20.0349 37.1129C19.865 37.5241 20.0773 38.0213 20.5418 38.1853C20.879 38.3103 21.3435 38.4743 21.8956 38.6825C21.9779 38.7242 22.023 38.7242 22.108 38.7632C23.5891 39.2604 25.6197 39.7967 27.8202 40.1689C26.509 38.9324 25.4499 37.4408 24.688 35.7905C23.9262 34.0985 23.5042 32.2815 23.4617 30.4619Z" fill="#F0B429"/>
<path d="M42.032 28.1921C41.018 26.0055 39.1971 24.3942 37.0417 23.6497C36.8293 23.569 36.6196 23.5273 36.3648 23.5273C35.2632 23.5273 34.1643 24.4358 34.0794 25.5526C33.9095 27.4528 34.2917 29.3505 35.1358 31.2091C35.9799 33.0261 37.1664 34.5541 38.6503 35.7099C39.0325 35.9988 39.5395 36.1238 40.004 36.1238C40.8932 36.1238 41.74 35.6708 42.0771 34.8873C43.0035 32.8569 43.0486 30.423 42.032 28.1921Z" fill="#F0B429"/>
<path d="M32.6407 32.3649C31.5842 30.0507 31.1595 27.6975 31.3719 25.3834C31.4117 24.7248 31.6267 24.1052 31.9213 23.5664C31.8815 23.5664 31.7939 23.6055 31.7514 23.6055C31.6665 23.6471 31.5391 23.6471 31.4541 23.6888C30.8197 23.8527 30.1853 24.1443 29.6359 24.4332C29.3412 24.5998 29.0864 24.7664 28.7918 24.9304C27.3557 25.8806 26.1692 27.5309 25.9993 29.2672C25.8294 31.1258 26.1692 33.0261 26.9708 34.8431C27.7751 36.6184 28.959 38.0657 30.3977 39.1798C31.2869 39.8827 32.8504 40.2966 34.1643 40.2966C35.6003 40.2966 37.124 39.7577 38.3503 39.0158C38.3503 39.0158 38.3928 39.0158 38.3928 38.9768C38.4751 38.9351 38.5627 38.8492 38.6476 38.8102C38.6874 38.7686 38.7299 38.7295 38.7724 38.7295C38.0955 38.5629 37.5035 38.2766 36.9966 37.9017C35.1385 36.4934 33.6573 34.6348 32.6407 32.3649Z" fill="#F0B429"/>
</g>
<defs>
<clipPath id="clip0_531_1867">
<rect width="30.7832" height="26.294" fill="white" transform="translate(12 14)"/>
</clipPath>
</defs>
</svg>
