<svg width="25" height="25" viewBox="0 0 25 25" fill="none" xmlns="http://www.w3.org/2000/svg">
<path fill-rule="evenodd" clip-rule="evenodd" d="M10.7345 16.8483H4.26147C3.70947 16.8483 3.26147 17.2953 3.26147 17.8483C3.26147 18.4013 3.70947 18.8483 4.26147 18.8483H10.7345C11.2865 18.8483 11.7345 18.4013 11.7345 17.8483C11.7345 17.2953 11.2865 16.8483 10.7345 16.8483Z" fill="black"/>
<path fill-rule="evenodd" clip-rule="evenodd" d="M17.5172 14.6276C15.1992 14.6276 14.2952 15.5306 14.2952 17.8496C14.2952 20.1686 15.1992 21.0716 17.5172 21.0716C19.8362 21.0716 20.7392 20.1686 20.7392 17.8496C20.7392 15.5306 19.8362 14.6276 17.5172 14.6276Z" fill="black"/>
<path fill-rule="evenodd" clip-rule="evenodd" d="M20.2383 6.35907H13.7673C13.2153 6.35907 12.7673 6.80607 12.7673 7.35907C12.7673 7.91207 13.2153 8.35907 13.7673 8.35907H20.2383C20.7903 8.35907 21.2383 7.91207 21.2383 7.35907C21.2383 6.80607 20.7903 6.35907 20.2383 6.35907Z" fill="black"/>
<path fill-rule="evenodd" clip-rule="evenodd" d="M6.98354 10.5807C9.30254 10.5807 10.2055 9.67766 10.2055 7.35766C10.2055 5.03966 9.30254 4.13666 6.98354 4.13666C4.66454 4.13666 3.76154 5.03966 3.76154 7.35766C3.76154 9.67766 4.66454 10.5807 6.98354 10.5807Z" fill="black"/>
</svg>
