<svg width="35" height="13" viewBox="0 0 35 13" fill="none" xmlns="http://www.w3.org/2000/svg">
<rect y="0.5" width="35" height="12" rx="4" fill="#E8E6E1"/>
<path d="M6.58 8.535C6.32333 8.535 6.09333 8.49333 5.89 8.41C5.68667 8.32667 5.52333 8.20333 5.4 8.04C5.28 7.87667 5.21667 7.68 5.21 7.45H6.12C6.13333 7.58 6.17833 7.68 6.255 7.75C6.33167 7.81667 6.43167 7.85 6.555 7.85C6.68167 7.85 6.78167 7.82167 6.855 7.765C6.92833 7.705 6.965 7.62333 6.965 7.52C6.965 7.43333 6.935 7.36167 6.875 7.305C6.81833 7.24833 6.74667 7.20167 6.66 7.165C6.57667 7.12833 6.45667 7.08667 6.3 7.04C6.07333 6.97 5.88833 6.9 5.745 6.83C5.60167 6.76 5.47833 6.65667 5.375 6.52C5.27167 6.38333 5.22 6.205 5.22 5.985C5.22 5.65833 5.33833 5.40333 5.575 5.22C5.81167 5.03333 6.12 4.94 6.5 4.94C6.88667 4.94 7.19833 5.03333 7.435 5.22C7.67167 5.40333 7.79833 5.66 7.815 5.99H6.89C6.88333 5.87667 6.84167 5.78833 6.765 5.725C6.68833 5.65833 6.59 5.625 6.47 5.625C6.36667 5.625 6.28333 5.65333 6.22 5.71C6.15667 5.76333 6.125 5.84167 6.125 5.945C6.125 6.05833 6.17833 6.14667 6.285 6.21C6.39167 6.27333 6.55833 6.34167 6.785 6.415C7.01167 6.49167 7.195 6.565 7.335 6.635C7.47833 6.705 7.60167 6.80667 7.705 6.94C7.80833 7.07333 7.86 7.245 7.86 7.455C7.86 7.655 7.80833 7.83667 7.705 8C7.605 8.16333 7.45833 8.29333 7.265 8.39C7.07167 8.48667 6.84333 8.535 6.58 8.535ZM11.3962 4.99L10.1812 7.34V8.5H9.32617V7.34L8.11117 4.99H9.08117L9.76117 6.46L10.4362 4.99H11.3962ZM14.8807 8.5H14.0257L12.5957 6.335V8.5H11.7407V4.99H12.5957L14.0257 7.165V4.99H14.8807V8.5ZM15.3554 6.74C15.3554 6.39333 15.4304 6.085 15.5804 5.815C15.7304 5.54167 15.9388 5.33 16.2054 5.18C16.4754 5.02667 16.7804 4.95 17.1204 4.95C17.5371 4.95 17.8938 5.06 18.1904 5.28C18.4871 5.5 18.6854 5.8 18.7854 6.18H17.8454C17.7754 6.03333 17.6754 5.92167 17.5454 5.845C17.4188 5.76833 17.2738 5.73 17.1104 5.73C16.8471 5.73 16.6338 5.82167 16.4704 6.005C16.3071 6.18833 16.2254 6.43333 16.2254 6.74C16.2254 7.04667 16.3071 7.29167 16.4704 7.475C16.6338 7.65833 16.8471 7.75 17.1104 7.75C17.2738 7.75 17.4188 7.71167 17.5454 7.635C17.6754 7.55833 17.7754 7.44667 17.8454 7.3H18.7854C18.6854 7.68 18.4871 7.98 18.1904 8.2C17.8938 8.41667 17.5371 8.525 17.1204 8.525C16.7804 8.525 16.4754 8.45 16.2054 8.3C15.9388 8.14667 15.7304 7.935 15.5804 7.665C15.4304 7.395 15.3554 7.08667 15.3554 6.74Z" fill="#423D33"/>
<path fill-rule="evenodd" clip-rule="evenodd" d="M30.6065 7.95C30.3305 7.95 30.1045 7.7265 30.1045 7.45C30.1045 7.1735 30.326 6.95 30.602 6.95H30.6065C30.8825 6.95 31.1065 7.1735 31.1065 7.45C31.1065 7.7265 30.8825 7.95 30.6065 7.95ZM29.1065 5.95C28.8305 5.95 28.6045 5.7265 28.6045 5.45C28.6045 5.1735 28.826 4.95 29.102 4.95H29.1065C29.3825 4.95 29.6065 5.1735 29.6065 5.45C29.6065 5.7265 29.3825 5.95 29.1065 5.95ZM27.6025 7.95C27.3265 7.95 27.1 7.7265 27.1 7.45C27.1 7.1735 27.322 6.95 27.598 6.95H27.6025C27.8785 6.95 28.1025 7.1735 28.1025 7.45C28.1025 7.7265 27.8785 7.95 27.6025 7.95ZM29 1.625C25.4005 1.625 24.125 2.9005 24.125 6.5C24.125 10.099 25.4005 11.375 29 11.375C32.5995 11.375 33.875 10.099 33.875 6.5C33.875 2.9005 32.5995 1.625 29 1.625Z" fill="black"/>
</svg>
