<svg width="64" height="59" viewBox="0 0 64 59" fill="none" xmlns="http://www.w3.org/2000/svg">
<rect width="64" height="59" rx="5" fill="#FACDCD"/>
<path d="M32.0176 22.48C30.6643 22.48 29.5793 22.1183 28.7626 21.395C27.9459 20.6717 27.5376 19.7617 27.5376 18.665C27.5376 17.545 27.9459 16.6233 28.7626 15.9C29.5793 15.1533 30.6643 14.78 32.0176 14.78C33.3476 14.78 34.4209 15.1533 35.2376 15.9C36.0543 16.6233 36.4626 17.545 36.4626 18.665C36.4626 19.7617 36.0543 20.6717 35.2376 21.395C34.4209 22.1183 33.3476 22.48 32.0176 22.48Z" fill="#610404"/>
<path d="M47.8724 24.48L43.1824 44.22H34.4324L32.0524 33.09L29.5324 44.22H20.7824L16.1274 24.48H23.8274L25.4724 36.485L28.0274 24.48H36.3224L39.0174 36.625L40.6974 24.48H47.8724Z" fill="#610404"/>
</svg>
